<?xml version="1.0" standalone="no"?>
<!DOCTYPE svg PUBLIC "-//W3C//DTD SVG 20010904//EN"
 "http://www.w3.org/TR/2001/REC-SVG-20010904/DTD/svg10.dtd">
<svg version="1.0" xmlns="http://www.w3.org/2000/svg"
 width="1280.000000pt" height="1220.000000pt" viewBox="0 0 1280.000000 1220.000000"
 preserveAspectRatio="xMidYMid meet">
<metadata>
Created by potrace 1.15, written by Peter Selinger 2001-2017
</metadata>
<g transform="translate(0.000000,1220.000000) scale(0.100000,-0.100000)"
fill="#000000" stroke="none">
<path d="M5965 12194 c-94 -10 -246 -38 -323 -60 -286 -83 -514 -290 -696
-635 -105 -199 -103 -192 -514 -1388 l-57 -165 -74 -43 c-156 -92 -309 -200
-372 -262 -60 -60 -70 -76 -106 -171 -22 -58 -73 -205 -113 -327 l-73 -222
-133 -3 c-115 -3 -135 -6 -154 -23 -28 -25 -59 -91 -60 -127 0 -24 4 -27 43
-31 28 -2 19 -4 -28 -5 -637 -13 -1890 -44 -1921 -48 l-41 -5 -16 -107 c-9
-59 -62 -417 -117 -797 -55 -379 -105 -721 -111 -760 -12 -75 -169 -978 -500
-2870 -38 -220 -101 -578 -139 -795 -38 -217 -157 -898 -265 -1512 l-195
-1117 74 -178 75 -178 183 -18 c164 -15 426 -44 968 -106 227 -26 412 -38 881
-56 986 -37 2561 -44 3489 -14 296 9 429 9 575 0 1021 -62 1775 -98 2525 -121
631 -19 1740 -9 2285 21 329 18 383 17 550 -13 242 -43 329 -52 535 -52 223
-1 271 8 406 74 60 29 96 55 135 98 112 121 124 186 115 607 -6 296 -17 473
-42 670 -19 158 -39 232 -86 335 -97 208 -79 134 -288 1205 -21 110 -98 502
-170 870 -200 1024 -210 1075 -226 1155 -7 41 -14 116 -14 166 0 63 -12 161
-39 310 -22 121 -60 336 -86 479 -66 376 -121 683 -160 900 -58 324 -71 407
-205 1234 -71 442 -131 805 -133 808 -2 2 -361 -8 -798 -22 -436 -14 -804 -25
-816 -25 -20 0 -23 5 -23 40 0 168 -118 367 -264 446 -28 15 -80 58 -116 94
-66 67 -147 117 -228 141 -28 8 -47 20 -52 34 -6 15 -23 25 -63 35 -31 7 -59
16 -64 19 -18 12 -296 492 -337 582 -58 126 -81 474 -52 794 29 325 18 482
-47 654 -18 47 -50 112 -71 144 -49 74 -140 156 -212 191 -110 54 -435 104
-589 91 -257 -22 -431 -82 -670 -234 -18 -11 -31 -5 -119 54 -162 109 -305
173 -481 216 -78 19 -290 32 -380 23z m375 -289 c112 -29 390 -154 390 -175 0
-21 -414 -405 -678 -629 -299 -253 -912 -732 -912 -713 0 16 128 449 186 628
41 128 72 201 121 290 260 472 483 653 768 623 33 -4 89 -14 125 -24z m1543
-40 c258 -67 435 -174 468 -284 23 -76 -10 -157 -186 -461 -125 -215 -185
-340 -208 -428 l-13 -54 -117 141 c-156 188 -171 209 -272 401 -123 232 -187
322 -321 448 -62 58 -110 110 -108 114 9 14 130 66 218 94 189 60 380 71 539
29z m-854 -327 c118 -89 254 -218 275 -262 8 -18 25 -98 36 -177 32 -233 68
-393 127 -564 154 -450 295 -730 453 -898 32 -34 109 -100 172 -145 l115 -84
-20 -39 c-30 -60 -26 -145 9 -209 35 -65 108 -129 191 -170 l63 -31 0 -56 0
-56 128 6 c70 4 250 7 400 7 l272 0 0 83 0 82 40 28 c41 29 92 95 105 136 7
23 7 23 45 -14 63 -62 109 -176 110 -272 l0 -43 -67 0 c-38 0 -486 -11 -998
-25 -1069 -28 -1700 -41 -2735 -55 -404 -6 -917 -15 -1140 -20 -304 -7 -406
-6 -412 2 -11 19 2 30 28 24 l24 -6 -7 108 -6 108 29 32 29 31 225 -19 c189
-16 227 -22 237 -37 22 -29 35 -93 31 -155 -3 -57 -2 -58 23 -58 14 0 47 -3
73 -6 l46 -7 0 86 c0 107 -26 194 -80 265 l-39 51 60 221 c32 122 59 223 59
225 0 2 15 7 33 10 129 28 362 186 622 424 198 179 354 364 824 978 215 281
283 362 382 457 67 64 126 116 132 116 5 0 53 -32 106 -72z m2062 -2083 l34
-14 -37 -1 c-27 0 -38 4 -38 15 0 18 0 18 41 0z m-401 -116 c-19 -12 -50 -34
-68 -50 -21 -19 -44 -29 -65 -29 -51 0 -60 -11 -52 -64 4 -28 3 -46 -2 -46
-19 0 -94 61 -113 93 -26 41 -27 77 -2 71 9 -2 78 7 152 20 74 13 146 24 160
25 23 1 22 -1 -10 -20z m494 -35 c35 -5 46 -11 46 -25 0 -16 -14 -18 -157 -21
-87 -2 -176 -1 -198 2 l-40 6 50 16 c28 9 61 19 75 21 42 7 174 7 224 1z"/>
</g>
</svg>
