<?xml version="1.0" standalone="no"?>
<!DOCTYPE svg PUBLIC "-//W3C//DTD SVG 20010904//EN"
 "http://www.w3.org/TR/2001/REC-SVG-20010904/DTD/svg10.dtd">
<svg version="1.0" xmlns="http://www.w3.org/2000/svg"
 width="1280.000000pt" height="1126.000000pt" viewBox="0 0 1280.000000 1126.000000"
 preserveAspectRatio="xMidYMid meet">
<metadata>
Created by potrace 1.15, written by Peter Selinger 2001-2017
</metadata>
<g transform="translate(0.000000,1126.000000) scale(0.100000,-0.100000)"
fill="#000000" stroke="none">
<path d="M7625 11250 c-18 -30 26 -108 156 -270 70 -89 105 -125 235 -247 45
-42 52 -56 64 -110 19 -93 18 -93 -158 -93 -145 0 -146 0 -281 -44 -93 -31
-176 -50 -261 -61 -69 -9 -169 -28 -223 -41 l-99 -25 -43 40 c-111 103 -199
155 -377 227 -146 58 -197 73 -290 80 l-80 7 -82 82 c-102 103 -156 125 -129
55 6 -17 10 -30 7 -30 -2 0 -43 26 -91 57 -131 85 -233 118 -233 75 0 -9 23
-46 51 -81 l52 -63 -59 37 c-153 99 -275 167 -289 161 -62 -23 52 -135 318
-311 154 -102 155 -112 8 -71 -46 14 -90 22 -98 19 -25 -10 -9 -37 43 -71 l50
-34 -60 -57 c-34 -31 -88 -77 -120 -101 -87 -66 -228 -212 -310 -320 -192
-255 -339 -550 -471 -945 -35 -104 -68 -191 -73 -193 -4 -1 -377 59 -827 133
-450 74 -822 132 -825 128 -4 -5 -44 -96 -89 -203 -46 -107 -235 -550 -421
-985 -186 -434 -591 -1382 -900 -2105 -309 -723 -714 -1670 -900 -2105 -186
-434 -444 -1037 -573 -1340 -130 -302 -237 -556 -239 -564 -3 -14 11 -17 1162
-250 472 -96 696 -141 1880 -381 410 -83 943 -191 1185 -240 242 -49 598 -121
790 -160 193 -39 548 -111 790 -160 242 -49 598 -121 790 -160 193 -39 548
-111 790 -160 242 -49 598 -121 790 -160 856 -174 1030 -208 1034 -205 2 2 6
643 10 1424 4 782 10 1423 12 1425 3 3 124 17 269 31 459 45 653 65 656 67 2
3 -27 108 -259 948 -53 190 -136 491 -186 670 -179 648 -294 1061 -378 1365
l-87 310 3 966 3 967 -28 6 c-16 3 -139 24 -274 46 -135 22 -250 42 -257 44
-6 3 -14 18 -18 35 -6 28 -10 31 -45 31 -22 0 -83 -5 -137 -10 -97 -10 -103
-9 -568 68 l-470 78 -7 54 c-42 327 -51 465 -49 690 3 332 -27 533 -112 745
l-34 85 26 8 c14 4 217 7 451 7 375 0 433 -2 490 -18 138 -37 251 -115 345
-237 24 -32 129 -199 231 -371 839 -1408 1554 -2390 2238 -3075 291 -291 473
-443 745 -623 286 -189 481 -237 590 -145 57 48 240 441 319 684 54 168 69
246 84 440 17 240 17 1190 -1 1393 l-14 159 -150 271 c-394 717 -712 1319
-838 1586 -82 177 -89 187 -143 230 -31 24 -58 42 -59 40 -6 -7 22 -497 59
-1024 72 -1060 162 -1873 255 -2321 16 -78 29 -151 29 -162 0 -25 -29 -36 -62
-23 -14 5 -239 243 -499 528 -261 285 -886 968 -1389 1518 -502 550 -938 1027
-969 1060 -30 33 -71 86 -92 117 -46 71 -112 238 -135 338 -43 193 -110 257
-444 426 -139 70 -259 141 -416 246 -212 142 -273 174 -289 148z m-1427 -841
c153 -50 231 -83 282 -119 14 -10 96 -59 184 -109 112 -66 177 -97 224 -108
37 -9 72 -17 79 -19 29 -7 122 -232 184 -445 53 -185 119 -507 119 -584 0 -65
-30 -280 -59 -415 -17 -85 -17 -85 -47 -82 -31 3 -772 124 -1379 225 l-370 62
-3 55 c-5 76 15 389 34 540 39 313 119 583 229 770 61 103 108 156 174 193 60
34 171 86 184 87 5 0 79 -23 165 -51z m-768 -482 c-80 -240 -140 -663 -140
-986 0 -56 -3 -101 -7 -101 -37 -2 -363 57 -363 66 0 20 109 332 154 444 53
128 146 316 214 431 53 88 162 243 168 237 2 -2 -10 -43 -26 -91z m1897 -1419
c-3 -8 -6 -5 -6 6 -1 11 2 17 5 13 3 -3 4 -12 1 -19z"/>
</g>
</svg>
